<?xml version="1.0" standalone="no"?>
<!DOCTYPE svg PUBLIC "-//W3C//DTD SVG 20010904//EN"
 "http://www.w3.org/TR/2001/REC-SVG-20010904/DTD/svg10.dtd">
<svg version="1.0" xmlns="http://www.w3.org/2000/svg"
 width="1200.000000pt" height="1200.000000pt" viewBox="0 0 1200.000000 1200.000000"
 preserveAspectRatio="xMidYMid meet">

<g transform="translate(0.000000,1200.000000) scale(0.100000,-0.100000)"
fill="#000000" stroke="none">
<path d="M5695 10059 c-1442 -114 -2698 -959 -3338 -2245 -219 -438 -356 -914
-409 -1414 -17 -163 -17 -637 0 -800 98 -929 491 -1774 1132 -2434 704 -725
1612 -1148 2629 -1226 688 -52 1431 89 2054 390 895 433 1596 1170 1992 2096
142 331 255 780 297 1174 17 163 17 637 0 800 -98 929 -491 1774 -1132 2434
-704 725 -1612 1148 -2629 1226 -153 11 -447 11 -596 -1z m467 -2291 c233
-107 287 -411 106 -592 -37 -36 -58 -65 -55 -75 6 -23 567 -1423 578 -1444 8
-14 90 61 532 490 287 279 521 512 520 518 -1 5 -9 35 -18 65 -35 125 25 257
148 322 60 32 184 32 244 0 101 -53 157 -143 157 -252 0 -147 -99 -260 -251
-285 -27 -4 -44 -13 -47 -23 -3 -9 -91 -372 -195 -805 -105 -433 -193 -792
-196 -798 -4 -5 -636 -9 -1666 -9 l-1659 0 -10 23 c-5 12 -100 393 -211 847
-111 454 -202 825 -203 826 0 0 -26 8 -57 17 -71 22 -131 73 -164 142 -22 44
-27 68 -26 125 1 120 48 197 153 249 168 84 357 -9 399 -195 15 -68 1 -142
-40 -206 l-29 -45 525 -508 c288 -279 526 -505 527 -503 2 1 136 332 298 733
l295 730 -54 52 c-31 30 -65 76 -81 110 -24 51 -27 70 -27 158 0 118 17 165
87 241 84 92 164 126 283 121 60 -2 94 -10 137 -29z m1518 -3123 c0 -218 -5
-240 -63 -275 -31 -20 -62 -20 -1602 -20 -1540 0 -1571 0 -1602 20 -58 35 -63
57 -63 275 l0 195 1665 0 1665 0 0 -195z"/>
</g>
</svg>
